# xmcd
#
# Track frame offsets:
#	150
#	17234
#	32296
#	47625
#	59531
#	79900
#	95619
#	111706
#	125823
#	137013
#	153216
#	172005
#	186144
#	201356
#	216208
#	235119
#	250609
#	265715
#
# Disc length: 3774 seconds
#
# Revision: 1
# Processed by: cddbd v1.5.2PL0 Copyright (c) Steve Scherf et al.
# Submitted via: audiograbber 1.83.01
#
DISCID=010ebc12
DTITLE=Prop Only - February 2014
DYEAR=2014
DGENRE=
TTITLE0=Kip Moore - Young Love
TTITLE1=Will Hoge - Strong
TTITLE2=Brad Paisley - The Mona Lisa
TTITLE3=Craig Campbell - Keep Them Kisses Comin'
TTITLE4=The Cadillac Three f./Florida Georgia Line, Dierks Bentley and Mike Eli /
TTITLE4=The South
TTITLE5=Joel Crouse - Why God Made Love Songs
TTITLE6=Blake Shelton - Doin' What She Likes
TTITLE7=Kelleigh Bannen - Famous
TTITLE8=JJ Lawhorn - You Can Tell A Man By His Truck
TTITLE9=Brantley Gilbert - Bottoms Up
TTITLE10=Keith Urban - Cop Car
TTITLE11=Chris Young - Who Am I With You
TTITLE12=Aaron Watson - July In Cheyenne
TTITLE13=Hannah Bethel - Medicine
TTITLE14=Bernie Nelson - Scarecrow
TTITLE15=Skylar Elise - Gypsy Soul (You Again)
TTITLE16=GB Leighton - Get Up
TTITLE17=Brian Milson - Nothing Grows In Shadows
EXTD=
EXTT0=
EXTT1=
EXTT2=
EXTT3=
EXTT4=
EXTT5=
EXTT6=
EXTT7=
EXTT8=
EXTT9=
EXTT10=
EXTT11=
EXTT12=
EXTT13=
EXTT14=
EXTT15=
EXTT16=
EXTT17=
PLAYORDER=
